# xmcd CD database file
#
# Track frame offsets:
#	150
#	19873
#	37800
#	53598
#	70823
#	90423
#	109060
#	128990
#	152595
#	177460
#	200290
#	221933
#	235258
#	252750
#	274613
#	292700
#	311075
#
# Disc length: 4405 seconds
#
# Revision: 1
# Processed by: cddbd v1.5.2PL0 Copyright (c) Steve Scherf et al.
# Submitted via: CDex 1.70beta1
#
DISCID=e6113311
DTITLE=19 - すべての人へ
DYEAR=1900
DGENRE=J-Pop
TTITLE0=あの紙ヒコーキ くもり空わって
TTITLE1=以心伝心
TTITLE2=卒業の歌、友達の歌。
TTITLE3=たいせつなひと
TTITLE4=すべてへ
TTITLE5=「果てのない道」
TTITLE6=恋
TTITLE7=あの青をこえて
TTITLE8=蒲公英-たんぽぽ-
TTITLE9=「伝えたい音」
TTITLE10=水・陸・空・無限大
TTITLE11=大自然
TTITLE12=瞬間概念
TTITLE13=ありあまる地上の憂鬱とよろこび
TTITLE14=たいせつなひと(album ver)
TTITLE15=西暦前進 2000年→
TTITLE16=三分間日記
EXTD=
EXTT0=
EXTT1=
EXTT2=
EXTT3=
EXTT4=
EXTT5=
EXTT6=
EXTT7=
EXTT8=
EXTT9=
EXTT10=
EXTT11=
EXTT12=
EXTT13=
EXTT14=
EXTT15=
EXTT16=
PLAYORDER=
